# xmcd
#
# Track frame offsets: 
#        150
#        17137
#        37897
#        60114
#        82548
#        107221
#        126515
#        144258
#        166750
#        187776
#        208296
#        237594
#
# Disc length: 3412 seconds
#
# Revision: 0
# Processed by: cddbd v1.5.2PL0 Copyright (c) Steve Scherf et al.
# Submitted via: ExactAudioCopy v0.95b4
#
DISCID=920d520c
DTITLE=Richie Furay - Heartbeat Of Love
DYEAR=2006
DGENRE=Country
TTITLE0=Forever With You
TTITLE1=My Heart's Cryin' Tonight
TTITLE2=Crazy For You
TTITLE3=Kind Woman
TTITLE4=Heartbeat Of Love
TTITLE5=Dean's Barbecue
TTITLE6=Only To You
TTITLE7=Callin' Out Your Name
TTITLE8=Real Love
TTITLE9=You And Me
TTITLE10=In The Still Of The Night
TTITLE11=Let's Dance Tonight
EXTD=
EXTT0=
EXTT1=
EXTT2=
EXTT3=
EXTT4=
EXTT5=
EXTT6=
EXTT7=
EXTT8=
EXTT9=
EXTT10=
EXTT11=
PLAYORDER=
